<svg xmlns="http://www.w3.org/2000/svg" width="256" height="14" viewBox="0 0 256 14">
  <g id="chars" fill-rule="evenodd">
    <polygon id="-" points="0 0 6 0 6 2 0 2" transform="translate(250 7)"/>
    <polygon id="+" points="2 2 2 0 4 0 4 2 6 2 6 4 4 4 4 6 2 6 2 4 0 4 0 2" transform="translate(243 5)"/>
    <path id="=" d="M0,0 L6,0 L6,2 L0,2 L0,0 Z M0,4 L6,4 L6,6 L0,6 L0,4 Z" transform="translate(236 5)"/>
    <path id=":" d="M0,4 L2,4 L2,6 L0,6 L0,4 Z M0,0 L2,0 L2,2 L0,2 L0,0 Z" transform="translate(233 5)"/>
    <polygon id="." points="0 0 2 0 2 2 0 2" transform="translate(230 9)"/>
    <polygon id="|" points="0 0 2 0 2 8 0 8" transform="translate(227 3)"/>
    <polygon id="z" points="8 0 8 2 4 6 8 6 8 8 0 8 0 6 4 2 0 2 0 0" transform="translate(218 3)"/>
    <polygon id="y" points="2 0 2 4 4 4 4 0 8 0 8 10 7 11 2 11 2 9 4 9 4 8 1 8 0 7 0 0" transform="translate(209 3)"/>
    <polygon id="x" points="8 0 8 2 6 4 8 6 8 8 6 8 4 6 2 8 0 8 0 6 1.95 4.05 0 2 0 0 2 0 4 2 6 0" transform="translate(200 3)"/>
    <polygon id="w" points="1 8 0 7 0 0 4 0 4 4 6 4 6 0 8 0 8 4 10 4 10 0 12 0 12 7 11 8" transform="translate(187 3)"/>
    <polygon id="v" points="6 0 8 0 8 2 5 8 3 8 0 2 0 0 2 0 4 4" transform="translate(178 3)"/>
    <polygon id="u" points="6 0 8 0 8 7 7 8 1 8 0 7 0 0 4 0 4 4 6 4" transform="translate(169 3)"/>
    <polygon id="t" points="6 11 1 11 0 10 0 0 4 0 4 3 6 3 6 5 4 5 4 9 6 9" transform="translate(162)"/>
    <polygon id="s" points="1 5 0 4 0 1 1 0 7 0 8 1 8 2 3 2 3 3 7 3 8 4 8 7 7 8 1 8 0 7 0 6 5 6 5 5" transform="translate(153 3)"/>
    <polygon id="r" points="8 3 6 3 6 2 4 2 4 8 0 8 0 1 1 0 7 0 8 1" transform="translate(144 3)"/>
    <path id="q" d="M8,10 L7,11 L4,11 L4,8 L1,8 L0,7 L0,1 L1,0 L7,0 L8,1 L8,10 Z M4,6 L4,2 L2,2 L2,6 L4,6 Z" transform="translate(135 3)"/>
    <path id="p" d="M0,10 L0,1 L1,0 L7,0 L8,1 L8,7 L7,8 L4,8 L4,11 L1,11 L0,10 Z M4,6 L6,6 L6,2 L4,2 L4,6 Z" transform="translate(126 3)"/>
    <path id="o" d="M0,1 L1,0 L7,0 L8,1 L8,7 L7,8 L1,8 L0,7 L0,1 Z M4,2 L4,6 L6,6 L6,2 L4,2 Z" transform="translate(117 3)"/>
    <polygon id="n" points="6 8 6 4 4 4 4 8 0 8 0 1 1 0 7 0 8 1 8 8" transform="translate(108 3)"/>
    <polygon id="m" points="1 0 11 0 12 1 12 8 10 8 10 4 8 4 8 8 6 8 6 4 4 4 4 8 0 8 0 1" transform="translate(95 3)"/>
    <polygon id="l" points="4 0 4 10 3 11 0 11 0 1 1 0" transform="translate(90)"/>
    <polygon id="k" points="4 5 6 3 9 3 9 4 6 7 9 10 9 11 6 11 4 9 4 11 0 11 0 1 1 0 4 0" transform="translate(80)"/>
    <polygon id="j" points="6 0 6 10 5 11 0 11 0 9 2 9 2 1 3 0" transform="translate(73 3)"/>
    <polygon id="i" points="4 0 4 7 3 8 0 8 0 1 1 0" transform="translate(70 3)"/>
    <polygon id="h" points="4 3 7 3 8 4 8 11 6 11 6 7 4 7 4 11 0 11 0 1 1 0 4 0" transform="translate(61)"/>
    <path id="g" d="M8,10 L7,11 L2,11 L2,9 L4,9 L4,8 L1,8 L0,7 L0,1 L1,0 L7,0 L8,1 L8,10 Z M4,6 L4,2 L2,2 L2,6 L4,6 Z" transform="translate(52 3)"/>
    <polygon id="f" points="6 0 6 2 4 2 4 6 6 6 6 8 4 8 4 11 0 11 0 1 1 0" transform="translate(45)"/>
    <path id="e" d="M8,5 L4,5 L4,6 L8,6 L8,7 L7,8 L1,8 L0,7 L0,1 L1,0 L7,0 L8,1 L8,5 Z M4,2 L4,4 L6,4 L6,2 L4,2 Z" transform="translate(36 3)"/>
    <path id="d" d="M8,1 L8,10 L7,11 L1,11 L0,10 L0,4 L1,3 L4,3 L4,0 L7,0 L8,1 Z M4,5 L2,5 L2,9 L4,9 L4,5 Z" transform="translate(27)"/>
    <polygon id="c" points="8 3 6 3 6 2 4 2 4 6 6 6 6 5 8 5 8 7 7 8 1 8 0 7 0 1 1 0 7 0 8 1" transform="translate(18 3)"/>
    <path id="b" d="M0,1 L1,0 L4,0 L4,3 L7,3 L8,4 L8,10 L7,11 L1,11 L0,10 L0,1 Z M4,5 L4,9 L6,9 L6,5 L4,5 Z" transform="translate(9)"/>
    <path id="a" d="M0,1 L1,0 L7,0 L8,1 L8,8 L1,8 L0,7 L0,1 Z M2,2 L2,6 L4,6 L4,2 L2,2 Z" transform="translate(0 3)"/>
  </g>
</svg>
