<svg xmlns="http://www.w3.org/2000/svg" width="652" height="120" viewBox="0 0 652 120">
  <g id="onno-react" fill-rule="evenodd">
    <path id="react" fill-rule="nonzero" d="M650.749371,60.0137331 C650.749371,51.0872053 639.570611,42.6276036 622.431678,37.3815518 C626.386816,19.9130236 624.628977,6.01510643 616.883497,1.56557565 C615.098192,0.521858549 613.010758,0.0274662394 610.73106,0.0274662394 L610.73106,6.15243763 C611.994507,6.15243763 613.010758,6.39963378 613.862211,6.86655985 C617.59762,9.00892653 619.218128,17.1663996 617.954681,27.6585031 C617.652552,30.2403296 617.15816,32.9594873 616.553902,35.7335775 C611.17052,34.415198 605.292744,33.3989471 599.11284,32.7397574 C595.404898,27.6585031 591.559625,23.0441749 587.686885,19.0066377 C596.640879,10.6843671 605.045548,6.12497139 610.758526,6.12497139 L610.758526,0 C610.758526,0 610.758526,0 610.758526,0 C603.20531,0 593.317464,5.38338293 583.319753,14.7219043 C573.322042,5.4383154 563.434195,0.109864958 555.88098,0.109864958 L555.88098,6.23483635 C561.566491,6.23483635 569.998627,10.7667659 578.952621,19.0341039 C575.107347,23.0716411 571.262074,27.6585031 567.609064,32.7397574 C561.401694,33.3989471 555.523919,34.415198 550.140536,35.7610437 C549.508812,33.0144198 549.041886,30.3501946 548.712291,27.7958343 C547.421378,17.3037308 549.01442,9.14625772 552.722362,6.97642481 C553.546349,6.4820325 554.617533,6.26230259 555.88098,6.26230259 L555.88098,0.137331197 C555.88098,0.137331197 555.88098,0.137331197 555.88098,0.137331197 C553.573816,0.137331197 551.486381,0.631723507 549.67361,1.6754406 C541.955596,6.12497139 540.225223,19.9954223 544.207828,37.4090181 C527.123827,42.682536 516,51.1146715 516,60.0137331 C516,68.9402609 527.178759,77.3998627 544.317693,82.6459144 C540.362554,100.114443 542.120394,114.01236 549.865873,118.461891 C551.651179,119.505608 553.738613,120 556.045777,120 C563.598993,120 573.486839,114.616617 583.48455,105.278096 C593.482261,114.561685 603.370108,119.890135 610.923323,119.890135 C613.230488,119.890135 615.317922,119.395743 617.130694,118.352026 C624.848707,113.902495 626.57908,100.032044 622.596475,82.6184482 C639.625544,77.3723964 650.749371,68.9127947 650.749371,60.0137331 Z M614.988327,41.6937514 C613.972076,45.2368963 612.708629,48.8899062 611.280385,52.542916 C610.154269,50.3456168 608.97322,48.1483177 607.682307,45.9510185 C606.41886,43.7537194 605.073014,41.6113527 603.727169,39.5239185 C607.627375,40.1007095 611.390249,40.8148318 614.988327,41.6937514 Z M602.408789,70.9452964 C600.266423,74.6532387 598.069123,78.1689174 595.789425,81.4373999 C591.696956,81.794461 587.549554,81.9867247 583.374685,81.9867247 C579.227283,81.9867247 575.079881,81.794461 571.014878,81.4648661 C568.73518,78.1963836 566.510414,74.7081712 564.368048,71.0276951 C562.280613,67.4296178 560.385443,63.7766079 558.65507,60.0961318 C560.357977,56.4156558 562.280613,52.7351797 564.340581,49.1371023 C566.482948,45.42916 568.680247,41.9134813 570.959945,38.6449989 C575.052415,38.2879377 579.199817,38.0956741 583.374685,38.0956741 C587.522087,38.0956741 591.66949,38.2879377 595.734493,38.6175326 C598.014191,41.8860151 600.238956,45.3742275 602.381323,49.0547036 C604.468757,52.652781 606.363928,56.3057908 608.094301,59.9862669 C606.363928,63.666743 604.468757,67.347219 602.408789,70.9452964 Z M611.280385,67.3746853 C612.763561,71.0551614 614.027008,74.7356374 615.070726,78.3062486 C611.472648,79.1851682 607.682307,79.9267567 603.754635,80.5035477 C605.100481,78.3886473 606.446326,76.2188144 607.709773,73.994049 C608.97322,71.7967498 610.154269,69.5719844 611.280385,67.3746853 Z M583.429618,96.6811627 C580.875257,94.0444038 578.320897,91.1055161 575.794003,87.8919661 C578.265965,88.0018311 580.792859,88.0842298 583.347219,88.0842298 C585.929046,88.0842298 588.483406,88.0292973 590.982834,87.8919661 C588.510872,91.1055161 585.956512,94.0444038 583.429618,96.6811627 Z M562.994736,80.5035477 C559.09453,79.9267567 555.331655,79.2126345 551.733577,78.3337148 C552.749828,74.7905699 554.013275,71.1375601 555.44152,67.4845502 C556.567636,69.6818494 557.748684,71.8791485 559.039597,74.0764477 C560.33051,76.2737469 561.64889,78.4161135 562.994736,80.5035477 Z M583.292287,23.3463035 C585.846647,25.9830625 588.401007,28.9219501 590.927901,32.1355001 C588.45594,32.0256352 585.929046,31.9432364 583.374685,31.9432364 C580.792859,31.9432364 578.238499,31.9981689 575.739071,32.1355001 C578.211032,28.9219501 580.765393,25.9830625 583.292287,23.3463035 Z M562.967269,39.5239185 C561.621424,41.638819 560.275578,43.8086519 559.012131,46.0334173 C557.748684,48.2307164 556.567636,50.4280156 555.44152,52.6253147 C553.958343,48.9448386 552.694896,45.2643626 551.651179,41.6937514 C555.249256,40.842298 559.039597,40.1007095 562.967269,39.5239185 Z M538.110323,73.9116503 C528.387274,69.7642481 522.097505,64.3259327 522.097505,60.0137331 C522.097505,55.7015335 528.387274,50.2357519 538.110323,46.115816 C540.472419,45.0995651 543.054246,44.1931792 545.718471,43.3417258 C547.284047,48.7251087 549.344015,54.3282216 551.898375,60.0686656 C549.371481,65.7816434 547.338979,71.35729 545.80087,76.7132067 C543.081712,75.8617533 540.499886,74.9279011 538.110323,73.9116503 Z M552.88716,113.160906 C549.151751,111.01854 547.531243,102.861067 548.79469,92.3689631 C549.096818,89.7871366 549.591211,87.0679789 550.195468,84.2938888 C555.578851,85.6122683 561.456626,86.6285191 567.63653,87.2877089 C571.344472,92.3689631 575.189746,96.9832914 579.062486,101.020829 C570.108492,109.343099 561.703822,113.902495 555.990845,113.902495 C554.754864,113.875029 553.711147,113.627832 552.88716,113.160906 Z M618.037079,92.231632 C619.327993,102.723735 617.734951,110.881209 614.027008,113.051041 C613.203021,113.545434 612.131838,113.765164 610.868391,113.765164 C605.182879,113.765164 596.750744,109.233234 587.79675,100.965896 C591.642023,96.9283589 595.487297,92.3414969 599.140307,87.2602426 C605.347677,86.6010529 611.225452,85.584802 616.608835,84.2389563 C617.240558,87.0130465 617.734951,89.6772717 618.037079,92.231632 Z M628.611582,73.9116503 C626.249485,74.9279011 623.667659,75.834287 621.003433,76.6857404 C619.437858,71.3023575 617.37789,65.6992447 614.823529,59.9588006 C617.350423,54.2458228 619.382925,48.6701762 620.921035,43.3142596 C623.640192,44.165713 626.222019,45.0995651 628.639048,46.115816 C638.362097,50.2632181 644.651865,55.7015335 644.651865,60.0137331 C644.624399,64.3259327 638.33463,69.7917144 628.611582,73.9116503 Z M583.347219,72.5658045 C576.414901,72.5658045 570.795148,66.9460507 570.795148,60.0137331 C570.795148,53.0814155 576.414901,47.4616617 583.347219,47.4616617 C590.279537,47.4616617 595.89929,53.0814155 595.89929,60.0137331 C595.89929,66.9460507 590.279537,72.5658045 583.347219,72.5658045 Z"/>
    <path id="onno" d="M432,60 L456,60 L456,36 L480,36 L480,60 L504,60 L504,84 L480,84 L480,108 L456,108 L456,84 L432,84 L432,60 Z M0,24 L12,12 L84,12 L96,24 L96,96 L84,108 L12,108 L0,96 L0,24 Z M48,36 L48,84 L72,84 L72,36 L48,36 Z M108,24 L120,12 L192,12 L204,24 L204,108 L180,108 L180,60 L156,60 L156,108 L108,108 L108,24 Z M216,24 L228,12 L300,12 L312,24 L312,108 L288,108 L288,60 L264,60 L264,108 L216,108 L216,24 Z M324,24 L336,12 L408,12 L420,24 L420,96 L408,108 L336,108 L324,96 L324,24 Z M372,36 L372,84 L396,84 L396,36 L372,36 Z"/>
  </g>
</svg>
