<svg xmlns="http://www.w3.org/2000/svg" width="630" height="120" viewBox="0 0 630 120">
  <g id="onno-vue" fill-rule="evenodd">
    <g id="vue" fill-rule="nonzero" transform="translate(500 5)">
      <polygon id="Path" points="78.134 109.511 63.475 84.221 48.816 109.511 0 109.511 63.475 0 126.951 109.511" transform="matrix(1 0 0 -1 0 109.511)"/>
      <polygon id="Path" points="78.134 65.705 63.475 40.415 48.816 65.705 25.39 65.705 63.475 0 101.561 65.705" transform="matrix(1 0 0 -1 0 65.705)"/>
    </g>
    <path id="onno" d="M432,60 L456,60 L456,36 L480,36 L480,60 L504,60 L504,84 L480,84 L480,108 L456,108 L456,84 L432,84 L432,60 Z M0,24 L12,12 L84,12 L96,24 L96,96 L84,108 L12,108 L0,96 L0,24 Z M48,36 L48,84 L72,84 L72,36 L48,36 Z M108,24 L120,12 L192,12 L204,24 L204,108 L180,108 L180,60 L156,60 L156,108 L108,108 L108,24 Z M216,24 L228,12 L300,12 L312,24 L312,108 L288,108 L288,60 L264,60 L264,108 L216,108 L216,24 Z M324,24 L336,12 L408,12 L420,24 L420,96 L408,108 L336,108 L324,96 L324,24 Z M372,36 L372,84 L396,84 L396,36 L372,36 Z"/>
  </g>
</svg>
