<svg xmlns="http://www.w3.org/2000/svg" width="420" height="120" viewBox="0 0 420 120">
  <path id="onno" fill-rule="evenodd" d="M0,24 L12,12 L84,12 L96,24 L96,96 L84,108 L12,108 L0,96 L0,24 Z M48,36 L48,84 L72,84 L72,36 L48,36 Z M108,24 L120,12 L192,12 L204,24 L204,108 L180,108 L180,60 L156,60 L156,108 L108,108 L108,24 Z M216,24 L228,12 L300,12 L312,24 L312,108 L288,108 L288,60 L264,60 L264,108 L216,108 L216,24 Z M324,24 L336,12 L408,12 L420,24 L420,96 L408,108 L336,108 L324,96 L324,24 Z M372,36 L372,84 L396,84 L396,36 L372,36 Z"/>
</svg>
